# xmcd
#
# Track frame offsets: 
#        150
#        9007
#        19501
#        31651
#        43437
#        53436
#        63486
#        73405
#        83672
#        93581
#        106245
#        116538
#
# Disc length: 1711 seconds
#
# Revision: 0
# Processed by: cddbd v1.5.2PL0 Copyright (c) Steve Scherf et al.
# Submitted via: ExactAudioCopyFreeDBPlugin 1.0
#
DISCID=8e06ad0c
DTITLE=Glen Campbell - 1965 - The Big Bad Rock Guitar of Glen Campbell
DTITLE=
DYEAR=1965
DGENRE=country
TTITLE0=Walk, Don't Run
TTITLE1=Ticket to Ride
TTITLE2=Steve's Shuck
TTITLE3=Spanish Shades
TTITLE4=The Lone Arranger
TTITLE5=James Bond Theme
TTITLE6=It's Not Unusual
TTITLE7=King of the Road
TTITLE8=Sassy
TTITLE9=Mr. Tambourine Man
TTITLE10=Spring Mist
TTITLE11=Beef Jerky
EXTD=
EXTT0=
EXTT1=
EXTT2=
EXTT3=
EXTT4=
EXTT5=
EXTT6=
EXTT7=
EXTT8=
EXTT9=
EXTT10=
EXTT11=
PLAYORDER=
